<svg xmlns="http://www.w3.org/2000/svg" width="24" height="24" viewBox="0 0 24 24">
    <path d="M21 15.813c0 .31-.252.562-.562.562H4.92l2.415 2.415c.22.22.22.576 0 .795-.11.11-.254.165-.397.165-.144 0-.288-.055-.398-.165L3.165 16.21c-.22-.22-.22-.575 0-.795L6.54 12.04c.22-.22.576-.22.795 0 .22.22.22.576 0 .795L4.92 15.25h15.518c.31 0 .562.252.562.563zm-.165-8.273L17.46 4.165c-.22-.22-.575-.22-.795 0-.22.22-.22.576 0 .795l2.415 2.415H3.563c-.311 0-.563.252-.563.563 0 .31.252.562.563.562H19.08l-2.415 2.415c-.22.22-.22.576 0 .795.11.11.254.165.398.165.143 0 .287-.055.397-.165l3.375-3.375c.22-.22.22-.575 0-.795z"/>
</svg>
